<svg xmlns="http://www.w3.org/2000/svg" width="1200" height="630" viewBox="0 0 1200 630">
  <defs>
    <linearGradient id="bg" x1="0" y1="0" x2="1" y2="1">
      <stop offset="0" stop-color="#0E1613"/>
      <stop offset="1" stop-color="#12251C"/>
    </linearGradient>
  </defs>
  <rect width="1200" height="630" fill="url(#bg)"/>

  <!-- stylised PCN loops: coloured route lines sweeping across the card -->
  <g fill="none" stroke-linecap="round" opacity="0.9">
    <path d="M -40 500 C 240 420 380 560 640 480 S 1080 420 1260 470" stroke="#FFD23F" stroke-width="10"/>
    <path d="M -40 545 C 260 470 420 600 680 525 S 1100 470 1260 515" stroke="#37BA66" stroke-width="10"/>
    <path d="M -40 590 C 280 520 460 640 720 570 S 1120 520 1260 560" stroke="#14A6C2" stroke-width="10"/>
    <path d="M -40 455 C 220 375 340 515 600 435 S 1060 375 1260 425" stroke="#A76BFF" stroke-width="10" opacity="0.75"/>
  </g>

  <!-- brand glyph: dashed loop + hub -->
  <g transform="translate(120,150)">
    <circle cx="0" cy="0" r="58" fill="none" stroke="#38BDF8" stroke-width="11" stroke-dasharray="18 20"/>
    <circle cx="0" cy="0" r="20" fill="#38BDF8"/>
  </g>

  <text x="220" y="175" font-family="Segoe UI, Arial, sans-serif" font-size="76" font-weight="700" fill="#EAF2ED">Cycling Buddy SG</text>
  <text x="222" y="245" font-family="Segoe UI, Arial, sans-serif" font-size="38" fill="#9FB4A9">Singapore Park Connector cycling map</text>

  <g font-family="Segoe UI, Arial, sans-serif" font-size="30" fill="#EAF2ED">
    <g transform="translate(222,310)">
      <circle cx="14" cy="-10" r="6" fill="#FFD23F"/><text x="38" y="0">7 PCN loops, colour-coded</text>
    </g>
    <g transform="translate(222,364)">
      <circle cx="14" cy="-10" r="6" fill="#37BA66"/><text x="38" y="0">Offline turn-by-turn routing</text>
    </g>
    <g transform="translate(700,310)">
      <circle cx="14" cy="-10" r="6" fill="#14A6C2"/><text x="38" y="0">Live rain radar (NEA)</text>
    </g>
    <g transform="translate(700,364)">
      <circle cx="14" cy="-10" r="6" fill="#FF3B5C"/><text x="38" y="0">Record rides, export GPX</text>
    </g>
  </g>

  <text x="222" y="430" font-family="Segoe UI, Arial, sans-serif" font-size="26" fill="#6E8177">Free · No app store · Installs from the browser</text>
</svg>
